<svg width="70" height="52" viewBox="0 0 70 52" fill="none" xmlns="http://www.w3.org/2000/svg">
<path d="M4.29867 40C3.97301 40 3.67992 39.886 3.41939 39.6581C3.15887 39.3975 3.02861 39.0882 3.02861 38.7299V7.07612C3.02861 6.7179 3.15887 6.42481 3.41939 6.19685C3.67992 5.93632 3.97301 5.80606 4.29867 5.80606H19.8813C22.8448 5.80606 25.271 6.19685 27.1598 6.97842C29.0486 7.76 30.4489 8.88351 31.3607 10.349C32.2726 11.8144 32.7285 13.6218 32.7285 15.7712C32.7285 16.8784 32.5005 17.8716 32.0446 18.7509C31.6213 19.5976 31.1002 20.3141 30.4815 20.9002C29.8627 21.4539 29.2765 21.8609 28.7229 22.1215C29.993 22.6751 31.1002 23.6195 32.0446 24.9547C32.989 26.2573 33.4612 27.7553 33.4612 29.4487C33.4612 31.7283 32.9402 33.6497 31.8981 35.2128C30.8885 36.776 29.4068 37.9646 27.4528 38.7788C25.5315 39.5929 23.1705 40 20.3698 40H4.29867ZM13.531 32.6239H19.2463C20.3535 32.6239 21.1677 32.2982 21.6887 31.6469C22.2098 30.963 22.4703 30.214 22.4703 29.3999C22.4703 28.5532 22.1935 27.8204 21.6399 27.2017C21.0863 26.5504 20.2884 26.2247 19.2463 26.2247H13.531V32.6239ZM13.531 19.044H18.7578C19.7999 19.044 20.5652 18.7509 21.0537 18.1647C21.5422 17.5785 21.7864 16.8947 21.7864 16.1131C21.7864 15.3315 21.5422 14.6476 21.0537 14.0615C20.5652 13.4753 19.7999 13.1822 18.7578 13.1822H13.531V19.044Z" fill="#030920"/>
<path d="M38.6758 40C38.3501 40 38.057 39.886 37.7965 39.6581C37.536 39.3975 37.4057 39.0882 37.4057 38.7299V7.07612C37.4057 6.7179 37.536 6.42481 37.7965 6.19685C38.057 5.93632 38.3501 5.80606 38.6758 5.80606H54.2585C57.2219 5.80606 59.6481 6.19685 61.5369 6.97842C63.4257 7.76 64.826 8.88351 65.7378 10.349C66.6497 11.8144 67.1056 13.6218 67.1056 15.7712C67.1056 16.8784 66.8776 17.8716 66.4217 18.7509C65.9984 19.5976 65.4773 20.3141 64.8586 20.9002C64.2398 21.4539 63.6536 21.8609 63.1 22.1215C64.3701 22.6751 65.4773 23.6195 66.4217 24.9547C67.3661 26.2573 67.8383 27.7553 67.8383 29.4487C67.8383 31.7283 67.3173 33.6497 66.2752 35.2128C65.2656 36.776 63.7839 37.9646 61.83 38.7788C59.9086 39.5929 57.5476 40 54.7469 40H38.6758ZM47.9082 32.6239H53.6234C54.7307 32.6239 55.5448 32.2982 56.0658 31.6469C56.5869 30.963 56.8474 30.214 56.8474 29.3999C56.8474 28.5532 56.5706 27.8204 56.017 27.2017C55.4634 26.5504 54.6655 26.2247 53.6234 26.2247H47.9082V32.6239ZM47.9082 19.044H53.1349C54.177 19.044 54.9423 18.7509 55.4308 18.1647C55.9193 17.5785 56.1635 16.8947 56.1635 16.1131C56.1635 15.3315 55.9193 14.6476 55.4308 14.0615C54.9423 13.4753 54.177 13.1822 53.1349 13.1822H47.9082V19.044Z" fill="#16C0B9"/>
<path d="M3 49L70 49" stroke="#D61C4E" stroke-width="6"/>
</svg>
