<svg width="319" height="287" viewBox="0 0 319 287" fill="none" xmlns="http://www.w3.org/2000/svg">
<g clip-path="url(#clip0_47_10197)">
<path d="M316.201 109.509C316.087 109.509 315.975 109.474 315.882 109.409L161.106 1.61855C160.635 1.29205 160.075 1.11757 159.502 1.11854C158.929 1.11952 158.37 1.29591 157.9 1.62402L4.23886 109.408C4.11731 109.493 3.96689 109.527 3.82067 109.501C3.67445 109.475 3.54441 109.393 3.45916 109.271C3.37391 109.149 3.34043 108.999 3.36609 108.853C3.39176 108.707 3.47446 108.577 3.596 108.491L157.257 0.707483C157.915 0.248207 158.698 0.00132392 159.5 5.30972e-06C160.303 -0.0013133 161.086 0.242994 161.746 0.700105L316.521 108.49C316.619 108.558 316.693 108.656 316.731 108.769C316.77 108.881 316.771 109.004 316.735 109.117C316.7 109.231 316.629 109.33 316.533 109.401C316.436 109.471 316.32 109.509 316.201 109.509Z" fill="#3F3D56"/>
<path d="M13.0195 113.331L159.654 4.65625L307.402 121.063L167.21 204.171L91.0973 186.822L13.0195 113.331Z" fill="#E6E6E6"/>
<path d="M97.5218 255.503H25.0807C24.6358 255.504 24.1953 255.417 23.7842 255.247C23.373 255.077 22.9994 254.828 22.6847 254.513C22.37 254.199 22.1203 253.826 21.9499 253.415C21.7796 253.004 21.6919 252.564 21.6919 252.119C21.6919 251.674 21.7796 251.234 21.9499 250.823C22.1203 250.412 22.37 250.038 22.6847 249.724C22.9994 249.41 23.373 249.161 23.7842 248.991C24.1953 248.821 24.6358 248.734 25.0807 248.734H97.5218C97.9666 248.734 98.4072 248.821 98.8183 248.991C99.2294 249.161 99.603 249.41 99.9177 249.724C100.232 250.038 100.482 250.412 100.653 250.823C100.823 251.234 100.911 251.674 100.911 252.119C100.911 252.564 100.823 253.004 100.653 253.415C100.482 253.826 100.232 254.199 99.9177 254.513C99.603 254.828 99.2294 255.077 98.8183 255.247C98.4072 255.417 97.9666 255.504 97.5218 255.503Z" fill="#1CD6CE"/>
<path d="M51.0709 240.952H25.0807C24.6358 240.953 24.1953 240.866 23.7842 240.696C23.373 240.526 22.9994 240.277 22.6847 239.963C22.37 239.648 22.1203 239.275 21.9499 238.864C21.7796 238.453 21.6919 238.013 21.6919 237.568C21.6919 237.123 21.7796 236.683 21.9499 236.272C22.1203 235.861 22.37 235.488 22.6847 235.173C22.9994 234.859 23.373 234.61 23.7842 234.44C24.1953 234.27 24.6358 234.183 25.0807 234.184H51.0709C51.5157 234.183 51.9563 234.27 52.3674 234.44C52.7785 234.61 53.1521 234.859 53.4669 235.173C53.7816 235.488 54.0313 235.861 54.2017 236.272C54.372 236.683 54.4597 237.123 54.4597 237.568C54.4597 238.013 54.372 238.453 54.2017 238.864C54.0313 239.275 53.7816 239.648 53.4669 239.963C53.1521 240.277 52.7785 240.526 52.3674 240.696C51.9563 240.866 51.5157 240.953 51.0709 240.952Z" fill="#1CD6CE"/>
<path d="M161.716 173.86C161.166 173.861 160.62 173.754 160.11 173.546L69.6763 136.022V18.566C69.6775 17.5274 70.0906 16.5316 70.825 15.7972C71.5594 15.0628 72.5552 14.6496 73.5938 14.6484H247.085C248.124 14.6496 249.119 15.0628 249.854 15.7972C250.588 16.5316 251.001 17.5274 251.003 18.566V136.104L250.833 136.176L163.37 173.527C162.847 173.747 162.284 173.861 161.716 173.86Z" fill="white"/>
<path d="M161.716 174.14C161.129 174.141 160.547 174.027 160.004 173.805L69.3965 136.209V18.5665C69.3977 17.4537 69.8404 16.3868 70.6273 15.5999C71.4141 14.813 72.481 14.3704 73.5939 14.3691H247.085C248.198 14.3704 249.265 14.813 250.052 15.5999C250.839 16.3868 251.281 17.4537 251.282 18.5665V136.289L163.48 173.785C162.922 174.02 162.322 174.141 161.716 174.14ZM70.5157 135.462L160.431 172.77C161.269 173.111 162.209 173.105 163.043 172.755L250.163 135.55V18.5665C250.162 17.7505 249.838 16.9681 249.261 16.3911C248.684 15.814 247.901 15.4894 247.085 15.4884H73.5939C72.7778 15.4894 71.9955 15.814 71.4184 16.3911C70.8414 16.9681 70.5168 17.7505 70.5158 18.5665L70.5157 135.462Z" fill="#3F3D56"/>
<path d="M315.082 108.39H314.97L250.723 135.824L162.819 173.359C162.475 173.504 162.107 173.579 161.734 173.581C161.361 173.583 160.992 173.511 160.647 173.371L69.9561 135.745L4.13015 108.434L4.02958 108.39H3.91754C2.8789 108.391 1.88312 108.804 1.14869 109.538C0.414259 110.273 0.00115246 111.269 0 112.307V282.441C0.00115394 283.479 0.414259 284.475 1.14869 285.209C1.88312 285.944 2.8789 286.357 3.91754 286.358H315.082C316.121 286.357 317.117 285.944 317.851 285.209C318.586 284.475 318.999 283.479 319 282.441V112.307C318.999 111.269 318.586 110.273 317.851 109.538C317.117 108.804 316.121 108.391 315.082 108.39ZM317.881 282.441C317.88 283.183 317.586 283.894 317.061 284.419C316.536 284.944 315.824 285.238 315.082 285.239H3.91754C3.17549 285.238 2.46392 284.944 1.93922 284.419C1.41451 283.894 1.11959 283.183 1.1193 282.441V112.307C1.12031 111.584 1.401 110.888 1.90268 110.367C2.40436 109.845 3.0882 109.538 3.81124 109.509L69.9561 136.954L160.217 174.406C161.194 174.803 162.288 174.797 163.261 174.389L250.723 137.038L315.194 109.509C315.916 109.54 316.598 109.848 317.099 110.37C317.599 110.891 317.879 111.585 317.881 112.307V282.441Z" fill="#3F3D56"/>
<path d="M160.812 140.554C157.474 140.56 154.224 139.481 151.552 137.478L151.387 137.354L116.514 110.654C114.899 109.417 113.544 107.873 112.525 106.112C111.507 104.351 110.845 102.406 110.578 100.389C110.311 98.3723 110.444 96.3225 110.969 94.3569C111.495 92.3913 112.402 90.5483 113.639 88.9333C114.877 87.3183 116.42 85.9629 118.181 84.9444C119.943 83.9258 121.887 83.2642 123.904 82.9972C125.921 82.7302 127.971 82.8631 129.937 83.3883C131.902 83.9135 133.745 84.8207 135.36 86.0581L157.948 103.378L211.326 33.7651C212.564 32.1505 214.108 30.7955 215.869 29.7776C217.631 28.7597 219.576 28.0987 221.593 27.8325C223.61 27.5662 225.66 27.6998 227.625 28.2258C229.591 28.7517 231.433 29.6596 233.048 30.8977L232.716 31.3483L233.056 30.9042C236.313 33.4073 238.444 37.1001 238.982 41.1723C239.519 45.2446 238.419 49.3637 235.924 52.6262L173.138 134.508C171.686 136.394 169.819 137.921 167.681 138.97C165.544 140.019 163.193 140.561 160.812 140.554Z" fill="#293462"/>
</g>
<defs>
<clipPath id="clip0_47_10197">
<rect width="319" height="286.358" fill="white"/>
</clipPath>
</defs>
</svg>
