<svg width="697" height="468" viewBox="0 0 697 468" fill="none" xmlns="http://www.w3.org/2000/svg">
<rect y="123" width="533" height="345" rx="49" fill="white"/>
<g clip-path="url(#clip0_26_3272)">
<path d="M384.662 163.999C403.041 163.999 417.94 149.1 417.94 130.721C417.94 112.342 403.041 97.4424 384.662 97.4424C366.283 97.4424 351.384 112.342 351.384 130.721C351.384 149.1 366.283 163.999 384.662 163.999Z" fill="#D61C4E"/>
<path d="M625.396 449.473C627.462 449.602 628.604 447.035 627.041 445.54L626.885 444.921C626.906 444.872 626.926 444.822 626.947 444.773C629.036 439.791 636.117 439.825 638.189 444.815C640.027 449.243 642.368 453.679 642.944 458.361C643.203 460.427 643.086 462.533 642.628 464.561C646.936 455.15 649.203 444.874 649.203 434.54C649.203 431.944 649.061 429.347 648.77 426.757C648.531 424.639 648.202 422.533 647.776 420.447C645.47 409.17 640.477 398.429 633.275 389.457C629.813 387.565 626.926 384.607 625.182 381.061C624.556 379.782 624.065 378.406 623.833 377.005C624.226 377.056 625.318 371.056 625.021 370.688C625.57 369.855 626.553 369.441 627.152 368.628C630.135 364.584 634.244 365.29 636.389 370.785C640.971 373.097 641.015 376.933 638.204 380.622C636.415 382.969 636.169 386.144 634.599 388.656C634.761 388.863 634.929 389.063 635.09 389.27C638.051 393.068 640.612 397.15 642.771 401.439C642.161 396.672 643.062 390.93 644.598 387.229C646.346 383.012 649.623 379.46 652.508 375.814C655.974 371.435 663.082 373.346 663.692 378.897C663.698 378.951 663.704 379.005 663.71 379.059C663.281 379.3 662.861 379.557 662.451 379.829C660.111 381.376 660.92 385.002 663.692 385.43L663.755 385.44C663.6 386.984 663.335 388.514 662.947 390.019C666.649 404.335 658.657 409.549 647.246 409.783C646.994 409.913 646.749 410.042 646.497 410.165C647.653 413.42 648.577 416.759 649.261 420.143C649.875 423.134 650.301 426.157 650.54 429.192C650.837 433.022 650.811 436.872 650.488 440.696L650.508 440.56C651.328 436.349 653.614 432.415 656.934 429.69C661.88 425.627 668.867 424.131 674.203 420.865C676.771 419.293 680.062 421.325 679.614 424.302L679.592 424.445C678.797 424.768 678.022 425.143 677.273 425.562C676.845 425.804 676.425 426.061 676.015 426.332C673.675 427.88 674.484 431.506 677.256 431.934L677.318 431.944C677.364 431.95 677.402 431.957 677.448 431.963C676.085 435.199 674.186 438.202 671.809 440.792C669.494 453.29 659.553 454.475 648.919 450.836H648.912C647.75 455.9 646.051 460.847 643.868 465.562H625.848C625.783 465.362 625.725 465.155 625.667 464.955C627.333 465.058 629.013 464.962 630.653 464.658C629.316 463.017 627.979 461.364 626.642 459.723C626.61 459.691 626.584 459.659 626.558 459.627C625.88 458.787 625.195 457.954 624.517 457.114L624.517 457.113C624.474 454.535 624.784 451.966 625.396 449.473Z" fill="#F2F2F2"/>
<path d="M157.156 466.56C157.156 467.22 157.686 467.75 158.346 467.75H695.636C696.296 467.75 696.826 467.22 696.826 466.56C696.826 465.9 696.296 465.37 695.636 465.37H158.346C157.686 465.37 157.156 465.9 157.156 466.56Z" fill="#CCCCCC"/>
<path d="M530.94 196.05V406.61L527.92 406.59L506.87 406.5V236.45L522.59 185.52L522.67 185.25L523.12 185.84L530.94 196.05Z" fill="#ACACAC"/>
<path d="M197.767 236.452H69.4404V406.5H197.767V236.452Z" fill="#CFCFCF"/>
<path d="M250.867 406.5H195.87V236.452L211.674 185.248L250.867 236.452V406.5Z" fill="#ACACAC"/>
<path d="M149.723 348.975H116.219V406.5H149.723V348.975Z" fill="#ACACAC"/>
<path d="M149.198 263.951H118.64V316.419H149.198V263.951Z" fill="#ACACAC"/>
<path d="M196.185 311.362H67.8594V327.798H196.185V311.362Z" fill="#ACACAC"/>
<path d="M69.44 236.45H0V406.5H69.44V236.45Z" fill="#CFCFCF"/>
<path d="M22.66 348.97H0V406.5H22.66V348.97Z" fill="#ACACAC"/>
<path d="M20.24 263.95H0V316.42H20.24V263.95Z" fill="#ACACAC"/>
<path d="M71.02 311.36H0V327.8H71.02V311.36Z" fill="#ACACAC"/>
<path d="M264.7 245.52C263.83 247.6 261.89 248.89 259.64 248.89H259.63L250.87 248.88L229.09 248.85H228.2L222.78 248.84L197.77 248.8H195.87L76.98 248.63C76.86 248.7 74.15 248.77 69.44 248.84C57.23 249.03 31.61 249.21 3.02002 249.36C2.02002 249.37 1.01001 249.37 0 249.38V184.95C1 184.96 2.01001 184.96 3.02002 184.96C48.21 185.14 97.87 185.4 98.42 185.75H208.52C209.49 185.75 210.45 186.01 211.28 186.51C211.71 186.74 212.1 187.05 212.45 187.4L216.41 191.44L218.46 193.53L263.56 239.54C265.14 241.15 265.58 243.44 264.7 245.52Z" fill="#3F3D56"/>
<path d="M78.9404 249H66.9404V407H78.9404V249Z" fill="#ACACAC"/>
<path d="M508.767 236.452H380.44V406.5H508.767V236.452Z" fill="#CFCFCF"/>
<path d="M460.723 348.975H427.219V406.5H460.723V348.975Z" fill="#ACACAC"/>
<path d="M460.198 263.951H429.64V316.419H460.198V263.951Z" fill="#ACACAC"/>
<path d="M507.186 311.362H378.859V327.798H507.186V311.362Z" fill="#ACACAC"/>
<path d="M524.16 186.7C523.84 186.38 523.49 186.09 523.12 185.84C522.95 185.73 522.77 185.62 522.59 185.52C521.65 185.02 520.6 184.75 519.52 184.75H398.91C396.32 184.75 393.98 186.28 392.95 188.65L383.75 209.78L370.36 240.51C369.48 242.53 369.67 244.83 370.88 246.67C372.08 248.51 374.11 249.6 376.31 249.61L380.44 249.62L388.6 249.63L506.87 249.8H511.5L521.94 244L524.94 193L524.16 186.7Z" fill="#3F3D56"/>
<path d="M530.94 405.11H0V407.11H530.94V405.11Z" fill="#CCCCCC"/>
<path d="M310.851 267.886C309.761 268.926 308.701 270.216 307.641 271.856V405.116H276.991L277.121 404.306L281.341 378.546L283.311 366.526L286.111 349.456L288.011 337.836L298.161 275.896C296.991 270.786 295.891 266.806 294.851 263.746L310.851 267.886Z" fill="#3F3D56"/>
<path d="M379.612 194.117C377.652 190.247 375.412 186.207 372.932 181.987C384.002 185.727 385.062 190.047 379.612 194.117Z" fill="#6C63FF"/>
<path d="M223.612 240.317C225.562 244.187 227.802 248.227 230.282 252.447C219.212 248.707 218.152 244.387 223.612 240.317Z" fill="#6C63FF"/>
<path d="M379.612 197.617C378.242 199.029 376.442 200.413 374.282 201.77L374.249 201.79C374.39 200.259 374.403 198.707 374.282 197.147C372.852 178.247 352.942 158.497 333.212 166.507C322.232 168.397 311.882 182.007 308.362 169.697C300.292 152.697 291.822 170.347 280.222 170.097C255.462 173.077 238.482 177.847 227.912 184.677C220.782 189.277 216.562 194.827 214.842 201.407C212.172 211.737 215.622 224.587 223.612 240.317C224.982 239.287 226.782 238.277 228.932 237.297C230.076 236.775 231.333 236.262 232.672 235.759C229.62 242.068 228.51 249.384 228.932 256.807C230.362 282.714 250.282 309.773 270.002 298.793C280.982 296.202 291.332 277.56 294.852 294.434C295.132 295.229 295.402 295.983 295.692 296.669C295.692 296.682 295.702 296.682 295.702 296.696C299.822 306.908 304.072 305.483 308.812 301.877C308.812 301.877 308.822 301.877 308.822 301.864C313.072 298.656 317.702 293.735 322.992 293.886C347.752 289.801 364.732 283.262 375.302 273.9C382.432 267.581 386.652 259.973 388.372 250.953C391.042 236.807 387.592 219.179 379.612 197.617Z" fill="#FEDB39"/>
<path d="M332.653 397.114C334.007 396.419 335.209 393.607 333.482 395.133C333.393 395.211 333.432 394.937 333.403 394.822L333.434 394.747C334.486 392.239 338.051 392.256 339.094 394.768C340.02 396.998 341.199 399.231 341.489 401.589C341.619 402.629 341.56 403.689 341.329 404.71C343.499 399.972 344.64 394.798 344.64 389.595C344.64 388.288 344.568 386.981 344.422 385.677C344.302 384.61 344.136 383.55 343.921 382.499C342.76 376.821 340.247 371.413 336.621 366.896C334.878 365.944 333.424 364.454 332.546 362.669C332.23 362.025 331.983 361.332 331.866 360.627C332.065 360.653 332.614 357.631 332.465 357.446C332.741 357.027 333.236 356.818 333.538 356.409C335.039 354.373 337.108 354.728 338.188 357.495C340.495 358.659 340.518 360.59 339.102 362.448C338.201 363.629 338.077 365.228 337.287 366.493C337.369 366.597 337.453 366.698 337.534 366.802C339.025 368.714 340.315 370.77 341.402 372.929C341.095 370.529 341.548 367.638 342.321 365.774C343.202 363.651 344.851 361.863 346.304 360.027C348.049 357.822 351.628 358.784 351.935 361.58L351.944 361.661C351.728 361.782 351.517 361.912 351.31 362.048C350.132 362.827 350.539 364.653 351.935 364.869L351.967 364.874C351.889 365.651 351.755 366.422 351.56 367.179C353.424 374.387 349.4 377.012 343.655 377.13C343.528 377.195 343.404 377.26 343.277 377.322C343.86 378.961 344.325 380.643 344.669 382.347C344.978 383.852 345.193 385.374 345.313 386.903C345.463 388.831 345.45 390.769 345.287 392.694L345.297 392.626C345.71 390.506 346.861 388.525 348.533 387.153C351.023 385.107 354.541 384.354 357.227 382.71C358.52 381.919 360.177 382.941 359.952 384.441L359.941 384.512C359.541 384.675 359.15 384.864 358.773 385.075C358.557 385.197 358.346 385.326 358.139 385.463C356.961 386.242 357.369 388.068 358.764 388.283L358.796 388.288L358.861 388.298C358.175 389.927 357.219 391.439 356.022 392.743C354.857 399.035 349.851 399.632 344.497 397.8H344.494C343.908 400.35 343.053 402.841 341.954 405.215H332.881C332.848 405.114 332.819 405.01 332.79 404.909C333.629 404.961 334.474 404.912 335.3 404.759C334.627 403.933 333.954 403.101 333.281 402.275C333.265 402.258 333.252 402.242 333.239 402.226C332.897 401.803 332.552 401.384 332.211 400.961C332.19 399.663 332.345 398.369 332.653 397.114Z" fill="#3F3D56"/>
<path d="M380.201 367.076C378.711 366.986 377.221 366.886 375.731 366.806C373.481 366.666 371.241 366.536 369.011 366.406C367.251 366.306 365.501 366.216 363.761 366.116V331.196C363.761 330.366 363.091 329.696 362.261 329.696C361.431 329.696 360.761 330.366 360.761 331.196V350.266C357.561 355.596 357.501 360.886 360.761 366.116C345.561 367.916 328.411 368.806 309.851 369.056H309.721C307.051 369.086 304.341 369.106 301.611 369.116C298.601 369.126 361.561 369.116 358.491 369.106C355.241 369.076 351.951 369.046 348.641 368.986C342.541 368.896 336.341 368.746 330.041 368.546C322.691 368.326 315.221 368.046 307.641 367.716C306.841 367.676 306.061 367.646 305.261 367.606H305.251C303.461 367.526 301.661 367.446 299.861 367.356C298.401 367.296 296.931 367.216 295.451 367.146C293.301 367.046 291.151 366.936 288.991 366.826H288.981C287.091 366.726 285.211 366.626 283.321 366.526H283.311C280.861 366.396 278.401 366.256 275.931 366.116C277.731 361.416 277.401 356.026 275.931 350.266V331.196C275.931 330.366 275.271 329.696 274.431 329.696C273.611 329.696 272.931 330.366 272.931 331.196V338.146C270.451 338.966 268.651 341.296 268.651 344.056C268.651 346.816 270.451 349.146 272.931 349.956V366.426C270.451 367.246 268.651 369.576 268.651 372.336C268.651 375.096 270.451 377.426 272.931 378.236V402.756C272.931 403.586 273.611 404.256 274.431 404.256C275.271 404.256 275.931 403.586 275.931 402.756V378.546H360.761V402.756C360.761 403.586 361.431 404.256 362.261 404.256C363.091 404.256 363.761 403.586 363.761 402.756V378.546H382.581V367.226C381.781 367.176 380.991 367.126 380.201 367.076Z" fill="#CFCFCF"/>
<path d="M496.16 124.44H34.78C15.6 124.44 0 140.04 0 159.22V432.97C0 452.15 15.6 467.75 34.78 467.75H496.16C515.34 467.75 530.94 452.15 530.94 432.97V159.22C530.94 140.04 515.34 124.44 496.16 124.44ZM527.92 329.75V432.97C527.92 450.51 513.7 464.73 496.16 464.73H34.78C17.24 464.73 3.02002 450.51 3.02002 432.97V159.22C3.02002 141.68 17.24 127.46 34.78 127.46H325.63C380.49 127.46 441.5 146.54 477.94 182C493.36 197 495.14 217.19 505.16 236.45C505.74 237.56 506.31 238.68 506.87 239.81C507.52 241.11 508.15 242.41 508.77 243.73C509.72 245.73 510.63 247.76 511.5 249.8C522.07 274.32 527.92 301.35 527.92 329.75Z" fill="#BFBFBF"/>
<path d="M530.94 196.049V406.609L527.92 406.589L506.87 406.499V236.449L522.59 185.519L522.67 185.249L523.12 185.839L530.94 196.049Z" fill="#ACACAC"/>
<path d="M197.767 236.451H69.4404V406.499H197.767V236.451Z" fill="#CFCFCF"/>
<path d="M250.867 406.499H195.87V236.451L211.674 185.247L250.867 236.451V406.499Z" fill="#ACACAC"/>
<path d="M149.723 348.974H116.219V406.499H149.723V348.974Z" fill="#ACACAC"/>
<path d="M149.198 263.95H118.64V316.419H149.198V263.95Z" fill="#ACACAC"/>
<path d="M196.185 311.361H67.8594V327.797H196.185V311.361Z" fill="#ACACAC"/>
<path d="M69.44 236.449H0V406.499H69.44V236.449Z" fill="#CFCFCF"/>
<path d="M22.66 348.969H0V406.499H22.66V348.969Z" fill="#ACACAC"/>
<path d="M20.24 263.949H0V316.419H20.24V263.949Z" fill="#ACACAC"/>
<path d="M71.02 311.359H0V327.799H71.02V311.359Z" fill="#ACACAC"/>
<path d="M264.7 245.519C263.83 247.599 261.89 248.889 259.64 248.889H259.63L250.87 248.879L229.09 248.849H228.2L222.78 248.839L197.77 248.799H195.87L76.98 248.629C76.86 248.699 74.15 248.769 69.44 248.839C57.23 249.029 31.61 249.209 3.02002 249.359C2.02002 249.369 1.01001 249.369 0 249.379V184.949C1 184.959 2.01001 184.959 3.02002 184.959C48.21 185.139 97.87 185.399 98.42 185.749H208.52C209.49 185.749 210.45 186.009 211.28 186.509C211.71 186.739 212.1 187.049 212.45 187.399L216.41 191.439L218.46 193.529L263.56 239.539C265.14 241.149 265.58 243.439 264.7 245.519Z" fill="#3F3D56"/>
<path d="M78.9404 248.999H66.9404V406.999H78.9404V248.999Z" fill="#ACACAC"/>
<path d="M508.767 236.451H380.44V406.499H508.767V236.451Z" fill="#CFCFCF"/>
<path d="M460.723 348.974H427.219V406.499H460.723V348.974Z" fill="#ACACAC"/>
<path d="M460.198 263.95H429.64V316.419H460.198V263.95Z" fill="#ACACAC"/>
<path d="M507.186 311.361H378.859V327.797H507.186V311.361Z" fill="#ACACAC"/>
<path d="M524.16 186.699C523.84 186.379 523.49 186.089 523.12 185.839C522.95 185.729 522.77 185.619 522.59 185.519C521.65 185.019 520.6 184.749 519.52 184.749H398.91C396.32 184.749 393.98 186.279 392.95 188.649L383.75 209.779L370.36 240.509C369.48 242.529 369.67 244.829 370.88 246.669C372.08 248.509 374.11 249.599 376.31 249.609L380.44 249.619L388.6 249.629L506.87 249.799H511.5L521.94 243.999L524.94 192.999L524.16 186.699Z" fill="#3F3D56"/>
<path d="M530.94 405.109H0V407.109H530.94V405.109Z" fill="#CCCCCC"/>
<path d="M310.851 267.885C309.761 268.925 308.701 270.215 307.641 271.855V405.115H276.991L277.121 404.305L281.341 378.545L283.311 366.525L286.111 349.455L288.011 337.835L298.161 275.895C296.991 270.785 295.891 266.805 294.851 263.745L310.851 267.885Z" fill="#3F3D56"/>
<path d="M379.612 194.116C377.652 190.246 375.412 186.206 372.932 181.986C384.002 185.726 385.062 190.046 379.612 194.116Z" fill="#6C63FF"/>
<path d="M223.612 240.316C225.562 244.186 227.802 248.226 230.282 252.446C219.212 248.706 218.152 244.386 223.612 240.316Z" fill="#6C63FF"/>
<path d="M379.612 197.616C378.242 199.028 376.442 200.412 374.282 201.769L374.249 201.789C374.39 200.258 374.403 198.706 374.282 197.146C372.852 178.246 352.942 158.496 333.212 166.506C322.232 168.396 311.882 182.006 308.362 169.696C300.292 152.696 291.822 170.346 280.222 170.096C255.462 173.076 238.482 177.846 227.912 184.676C220.782 189.276 216.562 194.826 214.842 201.406C212.172 211.736 215.622 224.586 223.612 240.316C224.982 239.286 226.782 238.276 228.932 237.296C230.076 236.774 231.333 236.261 232.672 235.758C229.62 242.067 228.51 249.383 228.932 256.806C230.362 282.713 250.282 309.772 270.002 298.792C280.982 296.202 291.332 277.559 294.852 294.433C295.132 295.228 295.402 295.982 295.692 296.668C295.692 296.681 295.702 296.681 295.702 296.695C299.822 306.907 304.072 305.482 308.812 301.876C308.812 301.876 308.822 301.876 308.822 301.863C313.072 298.655 317.702 293.734 322.992 293.885C347.752 289.8 364.732 283.261 375.302 273.899C382.432 267.58 386.652 259.972 388.372 250.953C391.042 236.806 387.592 219.178 379.612 197.616Z" fill="#FEDB39"/>
<path d="M332.653 397.113C334.007 396.418 335.209 393.606 333.482 395.132C333.393 395.21 333.432 394.936 333.403 394.821L333.434 394.746C334.486 392.238 338.051 392.255 339.094 394.767C340.02 396.997 341.199 399.23 341.489 401.588C341.619 402.628 341.56 403.688 341.329 404.71C343.499 399.971 344.64 394.797 344.64 389.594C344.64 388.287 344.568 386.98 344.422 385.676C344.302 384.609 344.136 383.549 343.921 382.498C342.76 376.82 340.247 371.412 336.621 366.895C334.878 365.943 333.424 364.453 332.546 362.668C332.23 362.024 331.983 361.331 331.866 360.626C332.065 360.652 332.614 357.63 332.465 357.445C332.741 357.026 333.236 356.817 333.538 356.408C335.039 354.372 337.108 354.727 338.188 357.494C340.495 358.658 340.518 360.589 339.102 362.447C338.201 363.628 338.077 365.227 337.287 366.492C337.369 366.596 337.453 366.697 337.534 366.801C339.025 368.713 340.315 370.769 341.402 372.928C341.095 370.528 341.548 367.637 342.321 365.773C343.202 363.65 344.851 361.862 346.304 360.026C348.049 357.821 351.628 358.783 351.935 361.579L351.944 361.66C351.728 361.781 351.517 361.911 351.31 362.047C350.132 362.826 350.539 364.652 351.935 364.868L351.967 364.873C351.889 365.65 351.755 366.421 351.56 367.178C353.424 374.386 349.4 377.011 343.655 377.129C343.528 377.194 343.404 377.259 343.277 377.321C343.86 378.96 344.325 380.642 344.669 382.346C344.978 383.851 345.193 385.373 345.313 386.902C345.463 388.83 345.45 390.768 345.287 392.693L345.297 392.625C345.71 390.505 346.861 388.524 348.533 387.152C351.023 385.107 354.541 384.353 357.227 382.709C358.52 381.918 360.177 382.94 359.952 384.44L359.941 384.511C359.541 384.674 359.15 384.863 358.773 385.074C358.557 385.196 358.346 385.325 358.139 385.462C356.961 386.241 357.369 388.067 358.764 388.282L358.796 388.287L358.861 388.297C358.175 389.926 357.219 391.438 356.022 392.742C354.857 399.034 349.851 399.631 344.497 397.799H344.494C343.908 400.349 343.053 402.84 341.954 405.214H332.881C332.848 405.113 332.819 405.009 332.79 404.908C333.629 404.96 334.474 404.911 335.3 404.758C334.627 403.932 333.954 403.1 333.281 402.274C333.265 402.257 333.252 402.241 333.239 402.225C332.897 401.802 332.552 401.383 332.211 400.96C332.19 399.662 332.345 398.368 332.653 397.113Z" fill="#3F3D56"/>
<path d="M380.201 367.075C378.711 366.985 377.221 366.885 375.731 366.805C373.481 366.665 371.241 366.535 369.011 366.405C367.251 366.305 365.501 366.215 363.761 366.115V331.195C363.761 330.365 363.091 329.695 362.261 329.695C361.431 329.695 360.761 330.365 360.761 331.195V350.265C357.561 355.595 357.501 360.885 360.761 366.115C345.561 367.915 328.411 368.805 309.851 369.055H309.721C307.051 369.085 304.341 369.105 301.611 369.115C298.601 369.125 361.561 369.115 358.491 369.105C355.241 369.075 351.951 369.045 348.641 368.985C342.541 368.895 336.341 368.745 330.041 368.545C322.691 368.325 315.221 368.045 307.641 367.715C306.841 367.675 306.061 367.645 305.261 367.605H305.251C303.461 367.525 301.661 367.445 299.861 367.355C298.401 367.295 296.931 367.215 295.451 367.145C293.301 367.045 291.151 366.935 288.991 366.825H288.981C287.091 366.725 285.211 366.625 283.321 366.525H283.311C280.861 366.395 278.401 366.255 275.931 366.115C277.731 361.415 277.401 356.025 275.931 350.265V331.195C275.931 330.365 275.271 329.695 274.431 329.695C273.611 329.695 272.931 330.365 272.931 331.195V338.145C270.451 338.965 268.651 341.295 268.651 344.055C268.651 346.815 270.451 349.145 272.931 349.955V366.425C270.451 367.245 268.651 369.575 268.651 372.335C268.651 375.095 270.451 377.425 272.931 378.235V402.755C272.931 403.585 273.611 404.255 274.431 404.255C275.271 404.255 275.931 403.585 275.931 402.755V378.545H360.761V402.755C360.761 403.585 361.431 404.255 362.261 404.255C363.091 404.255 363.761 403.585 363.761 402.755V378.545H382.581V367.225C381.781 367.175 380.991 367.125 380.201 367.075Z" fill="#CFCFCF"/>
<path d="M496.16 124.439H34.78C15.6 124.439 0 140.039 0 159.219V432.969C0 452.149 15.6 467.749 34.78 467.749H496.16C515.34 467.749 530.94 452.149 530.94 432.969V159.219C530.94 140.039 515.34 124.439 496.16 124.439ZM527.92 329.749V432.969C527.92 450.509 513.7 464.729 496.16 464.729H34.78C17.24 464.729 3.02002 450.509 3.02002 432.969V159.219C3.02002 141.679 17.24 127.459 34.78 127.459H325.63C380.49 127.459 441.5 146.539 477.94 181.999C493.36 196.999 495.14 217.189 505.16 236.449C505.74 237.559 506.31 238.679 506.87 239.809C507.52 241.109 508.15 242.409 508.77 243.729C509.72 245.729 510.63 247.759 511.5 249.799C522.07 274.319 527.92 301.349 527.92 329.749Z" fill="#BFBFBF"/>
<path d="M617.885 35.8477V66.1623H565.116C564.071 66.1623 563.049 66.0308 562.077 65.7824C562.048 65.6655 562.011 65.5486 561.982 65.4318C561.449 63.6056 560.675 61.8451 559.666 60.2308C559.681 61.6698 559.403 63.1162 558.885 64.4603C555.291 62.3273 552.873 58.4047 552.873 53.9196C552.873 53.9196 555.795 2.61123 585.379 3.34171C594.354 3.56331 602.487 6.97944 608.367 12.8597C614.247 18.74 617.885 26.8701 617.885 35.8477Z" fill="#2F2E41"/>
<path d="M602.638 448.681L595.816 448.842L592.014 418.193L602.081 417.955L602.638 448.681Z" fill="#A0616A"/>
<path d="M579.233 462.913C579.233 464.066 580.051 465 581.06 465H594.601C594.601 465 595.933 459.643 601.366 457.338L601.741 465H608.727L607.88 452.68C607.88 452.68 609.749 446.089 605.868 442.72C601.988 439.351 605.131 439.82 605.131 439.82L603.604 432.195L593.049 433.437L592.971 445.406L587.849 457.286L580.335 460.998C579.666 461.328 579.233 462.081 579.233 462.913Z" fill="#2F2E41"/>
<path d="M503.574 447.599L497.035 445.649L502.865 415.321L512.516 418.198L503.574 447.599Z" fill="#A0616A"/>
<path d="M476.921 453.923C476.566 455.019 477.056 456.16 478.016 456.471L490.897 460.645C490.897 460.645 493.816 455.96 499.695 455.442L497.69 462.846L504.335 465L507.328 453.019C507.328 453.019 511.137 447.325 508.484 442.924C505.831 438.523 508.677 439.938 508.677 439.938L509.575 432.214L499.151 430.141L495.387 441.503L486.852 451.226L478.56 452.44C477.822 452.548 477.178 453.131 476.921 453.923Z" fill="#2F2E41"/>
<path d="M609.119 145.054L555.064 155.28L530.228 250.972C530.228 250.972 519.271 278.73 522.923 287.496L491.513 421.172L513.427 424.824L582.092 232.71L587.403 227.399L583.765 424.824H609.119L633.225 204.952C633.225 204.952 631.033 164.776 609.119 145.054Z" fill="#2F2E41"/>
<path d="M645.245 197.533C646.071 202.686 644.082 207.29 640.803 207.816C637.523 208.341 634.195 204.59 633.369 199.436C633.008 197.18 633.186 195.03 633.775 193.28L630.549 171.4L640.85 170.104L642.936 191.812C644.043 193.29 644.884 195.277 645.245 197.533Z" fill="#A0616A"/>
<path d="M485.406 182.919C481.984 186.859 477.176 188.288 474.669 186.11C472.161 183.932 472.903 178.972 476.326 175.032C477.824 173.307 479.587 172.063 481.307 171.393L496.019 154.878L503.622 161.947L488.312 177.477C487.889 179.274 486.904 181.194 485.406 182.919Z" fill="#A0616A"/>
<path d="M592.319 53.0137H568.987L556.525 69.0841L547.029 100.494L549.951 120.948C549.951 120.948 548.49 127.838 549.951 129.141C551.412 130.444 552.873 128.983 552.873 131.905C552.873 134.826 548.49 134.096 551.412 137.018C554.334 139.94 555.065 156.741 555.065 156.741L584.283 152.358L609.119 146.514L616.424 137.748C616.424 137.748 622.268 126.791 620.807 115.104C619.346 103.416 620.807 113.68 620.807 113.68L621.041 92.4218L611.311 62.5098L596.701 61.7793L592.319 53.0137Z" fill="#1CD6CE"/>
<path d="M606.928 63.9707C606.928 63.9707 623.729 56.666 630.303 69.8145C636.877 82.963 639.799 128.252 639.799 128.252L643.451 183.038L631.033 185.229L626.65 135.557L617.154 86.6154L606.928 63.9707Z" fill="#1CD6CE"/>
<path d="M573.766 73.6624C573.766 73.6624 562.029 59.5952 550.254 68.3953C538.479 77.1954 515.544 116.357 515.544 116.357L487.695 163.678L497.809 171.209L524.016 128.786L556.94 96.9996L573.766 73.6624Z" fill="#1CD6CE"/>
<path d="M582.822 49.3615C593.311 49.3615 601.815 40.8583 601.815 30.3692C601.815 19.8801 593.311 11.377 582.822 11.377C572.333 11.377 563.83 19.8801 563.83 30.3692C563.83 40.8583 572.333 49.3615 582.822 49.3615Z" fill="#A0616A"/>
<path d="M606.197 74.1976C603.991 73.92 601.61 74.0077 599.236 74.1976C598.703 72.3714 597.929 70.611 596.92 68.9967C596.935 70.9105 596.446 72.8243 595.569 74.5264C590.134 75.0304 585.306 75.3299 583.553 72.0062C578.104 61.67 607.826 47.4989 601.815 31.0998C600.186 26.6585 599.075 30.2232 593.779 29.6389C591.829 29.427 585.868 27.6227 579.024 26.2056C578.958 25.8842 578.871 25.5701 578.783 25.256C578.25 23.4298 577.475 21.6694 576.467 20.0551C576.482 21.9251 576.014 23.7951 575.174 25.4679C570.77 24.7082 566.255 24.2334 562.369 24.5256C558.417 24.825 559.104 21.7936 559.447 20.8732C561.639 15.0294 560.348 2.61141 570.404 2.61141C581.361 2.61141 580.324 -1.25281 585.744 0.419991C590.39 1.859 603.699 4.11618 610.58 13.5685C617.768 23.4444 621.004 37.7398 620.807 42.7873C620.551 49.2374 623.729 76.389 606.197 74.1976Z" fill="#2F2E41"/>
</g>
<defs>
<clipPath id="clip0_26_3272">
<rect width="696.826" height="467.75" fill="white"/>
</clipPath>
</defs>
</svg>
