<svg width="811" height="482" viewBox="0 0 811 482" fill="none" xmlns="http://www.w3.org/2000/svg">
<g clip-path="url(#clip0_26_3062)">
<path d="M88.0981 339.912C84.5944 340.289 80.7723 340.854 76.7066 341.682C59.4679 345.191 59.1101 356.892 59.2612 359.574L59.1441 359.501C57.4107 362.281 56.3251 365.093 55.669 367.748L54.8795 331.887C55.39 330.823 55.8544 329.617 56.2417 328.38C57.5321 332.352 59.6474 336.105 61.4708 335.856C63.8418 335.533 64.8755 328.559 64.4332 323.603C67.4483 327.485 72.5226 331.636 74.4368 330.356C75.9664 329.333 75.0595 325.122 73.3894 321.294C76.8691 323.39 80.7229 324.767 81.9188 323.436C83.5507 321.621 79.6404 315.425 76.0341 311.966C80.8613 312.416 87.0006 311.647 87.403 309.451C87.7347 307.642 84.0809 305.359 80.17 303.889C84.0982 302.854 87.7715 301.05 87.6496 299.265C87.5049 297.145 82.0514 295.725 77.3466 295.509C80.8952 292.734 84.1558 288.897 83.1587 287.162C82.242 285.567 77.9775 286.185 74.043 287.59C76.3714 284.262 78.0084 280.513 76.7617 279.23C75.2087 277.631 69.697 280.39 65.9356 283.44C66.6678 278.689 66.2977 272.692 64.1659 272.149C62.3825 271.695 59.8549 275.184 58.122 278.984C57.3561 274.996 55.8056 271.21 54.0162 271.21C51.467 271.21 49.4005 278.893 49.4005 283.898C49.4005 284.181 49.408 284.447 49.4209 284.702C49.1651 284.405 48.8718 284.095 48.5374 283.771C44.9453 280.284 37.992 276.413 36.216 278.241C34.9693 279.524 36.6063 283.274 38.9347 286.601C35.0002 285.196 30.7357 284.579 29.819 286.174C28.5872 288.317 33.8524 293.667 38.1321 296.262C37.8748 296.231 37.6045 296.205 37.3169 296.185C32.3212 295.844 24.5125 297.382 24.339 299.924C24.2172 301.709 27.8905 303.513 31.8186 304.548C27.9078 306.018 24.254 308.301 24.5856 310.11C24.9881 312.306 31.1274 313.075 35.9545 312.625C32.3483 316.084 28.4379 322.28 30.0698 324.095C31.2657 325.426 35.1195 324.049 38.5992 321.953C36.9292 325.781 36.0222 329.992 37.5518 331.015C39.5733 332.367 45.1173 327.662 48.0403 323.614C47.7424 328.567 48.9279 335.37 51.28 335.638C52.2636 335.751 53.3059 334.702 54.2466 333.088L51.5824 371.634C50.9597 376.123 54.9432 379.052 55.2992 380.901L55.8738 407.004C55.2253 405.145 54.3517 403.243 53.1743 401.355L53.0571 401.428C53.2082 398.745 52.8501 387.044 35.6117 383.536C31.546 382.708 27.7239 382.143 24.2202 381.766C20.0845 381.321 18.4713 386.98 22.2074 388.808C27.6181 391.455 32.7078 394.79 35.3607 398.74C42.1432 408.837 51.5145 403 52.8469 402.094C54.3352 404.57 55.311 407.065 55.9274 409.439L56.2326 423.302C56.1578 423.629 56.106 423.813 56.102 423.827L56.245 423.869L56.9835 457.417L63.8342 457.362L61.3839 423.071C61.7956 421.221 63.0624 414.919 61.3839 408.374L58.9335 381.431C58.9274 381.411 59.0726 382.139 58.9335 381.431L55.7371 370.845C56.2019 367.57 57.2806 363.886 59.4713 360.24C60.8037 361.147 70.1751 366.984 76.9576 356.886C79.6105 352.936 84.7002 349.601 90.1109 346.954C93.847 345.126 92.2338 339.467 88.0981 339.912ZM56.8035 419.286L56.6744 413.419C56.9348 415.637 56.9216 417.639 56.8035 419.286Z" fill="#293462"/>
<path d="M0 459.018C0 459.749 0.587498 460.336 1.31909 460.336H809.681C810.412 460.336 811 459.749 811 459.018C811 458.286 810.412 457.699 809.681 457.699H1.31909C0.587498 457.699 0 458.286 0 459.018Z" fill="#3F3D56"/>
<path d="M490.565 460.187C523.622 460.187 550.42 433.4 550.42 400.357C550.42 367.313 523.622 340.526 490.565 340.526C457.508 340.526 430.71 367.313 430.71 400.357C430.71 433.4 457.508 460.187 490.565 460.187Z" fill="#3F3D56"/>
<path d="M490.565 440.244C512.603 440.244 530.468 422.386 530.468 400.357C530.468 378.328 512.603 360.47 490.565 360.47C468.527 360.47 450.662 378.328 450.662 400.357C450.662 422.386 468.527 440.244 490.565 440.244Z" fill="white"/>
<path d="M490.565 423.069C503.114 423.069 513.288 412.9 513.288 400.356C513.288 387.812 503.114 377.643 490.565 377.643C478.016 377.643 467.842 387.812 467.842 400.356C467.842 412.9 478.016 423.069 490.565 423.069Z" fill="#3F3D56"/>
<path d="M144.737 460.187C177.794 460.187 204.592 433.4 204.592 400.357C204.592 367.313 177.794 340.526 144.737 340.526C111.68 340.526 84.8818 367.313 84.8818 400.357C84.8818 433.4 111.68 460.187 144.737 460.187Z" fill="#3F3D56"/>
<path d="M144.737 440.244C166.775 440.244 184.64 422.386 184.64 400.357C184.64 378.328 166.775 360.47 144.737 360.47C122.699 360.47 104.833 378.328 104.833 400.357C104.833 422.386 122.699 440.244 144.737 440.244Z" fill="white"/>
<path d="M572.446 371.901C564.649 352.26 537.404 292.241 488.886 272.377C488.513 272.224 488.121 272.12 487.722 272.063L332.093 249.78C329.528 249.412 327.142 251.166 326.728 253.723L323.999 270.562C323.812 271.718 324.055 272.902 324.69 273.887C332.594 286.144 383.247 369.333 302.133 369.333C222.293 369.333 198.663 311.304 195.114 301.065C194.779 300.098 194.766 299.056 195.074 298.08L219.664 220.245C220.101 218.86 219.859 217.442 219.153 216.309L229.962 196.241L249.762 207.445L260.013 207.569L295.007 225.851L302.133 214.217L229.962 178.234C229.962 178.234 230.085 169.898 206.809 163.25L170.231 146.631L165.797 152.171L176.881 161.034L177.99 167.682L185.748 169.898L201.266 199.813L196.833 208.385L202.214 211.008L200.669 210.657C198.443 210.151 196.172 211.298 195.259 213.389L170.804 269.409C170.43 270.266 169.811 270.994 169.025 271.501L160.314 277.119C159.5 277.644 158.866 278.405 158.496 279.3L148.547 303.424C148.237 304.176 148.148 304.964 148.228 305.726C135.825 308.076 99.3641 318.221 79.3398 358.253L102.617 377.089C102.617 377.089 139.104 353.49 199.406 378.065C209.887 394.372 225.178 407.905 247.254 409.181C305.458 412.544 401.891 415.868 412.975 402.572C421.09 392.839 426.735 386.761 429.177 384.204C430.037 383.303 431.212 382.782 432.457 382.742L568.183 378.408C571.477 378.303 573.662 374.964 572.446 371.901Z" fill="#D61C4E"/>
<path d="M197.941 197.598C207.736 197.598 215.676 189.661 215.676 179.87C215.676 170.079 207.736 162.143 197.941 162.143C188.147 162.143 180.207 170.079 180.207 179.87C180.207 189.661 188.147 197.598 197.941 197.598Z" fill="#3F3D56"/>
<path d="M481.957 272.445C481.747 272.445 481.536 272.441 481.324 272.433L333.041 266.695C326.479 266.441 320.859 262.266 318.724 256.058L316.694 250.154C315.038 245.341 315.758 240.184 318.668 236.007C321.579 231.83 326.168 229.367 331.258 229.25L484.461 225.73C489.205 225.621 493.772 227.651 496.869 231.306C499.965 234.959 501.227 239.753 500.331 244.457L497.442 259.618C496.009 267.139 489.551 272.445 481.957 272.445Z" fill="#3F3D56"/>
<path d="M144.737 423.069C157.286 423.069 167.46 412.9 167.46 400.356C167.46 387.812 157.286 377.643 144.737 377.643C132.187 377.643 122.014 387.812 122.014 400.356C122.014 412.9 132.187 423.069 144.737 423.069Z" fill="#3F3D56"/>
<path d="M541.528 335.691C537.979 335.691 534.6 333.791 532.798 330.534L521.565 310.214C519.785 306.995 519.887 303.212 521.837 300.094C523.786 296.974 527.154 295.214 530.818 295.415L551.197 296.459C554.992 296.654 558.402 299.04 559.883 302.54L565.839 316.608C566.928 319.184 566.901 322.008 565.763 324.563C564.625 327.117 562.541 329.025 559.896 329.937L544.795 335.142C543.717 335.514 542.615 335.691 541.528 335.691Z" fill="#3F3D56"/>
<path d="M283.766 470.742C283.597 470.742 283.427 470.732 283.256 470.714L278.73 470.211C277.252 470.046 275.972 469.217 275.219 467.933C274.465 466.651 274.365 465.129 274.942 463.758L298.482 407.873C299.128 406.339 300.556 405.258 302.207 405.052C303.815 404.847 305.382 405.479 306.405 406.732C307.428 407.984 307.73 409.646 307.214 411.178L288.199 467.565C287.559 469.469 285.743 470.742 283.766 470.742Z" fill="#3F3D56"/>
<path d="M405.988 80.7513C405.988 80.7513 397.376 63.5343 399.098 48.0391L370.436 62.8896L371.54 91.0815L405.988 80.7513Z" fill="#C5926D"/>
<path d="M388.201 70.8417C402.481 70.8417 414.057 59.2704 414.057 44.9965C414.057 30.7226 402.481 19.1514 388.201 19.1514C373.921 19.1514 362.345 30.7226 362.345 44.9965C362.345 59.2704 373.921 70.8417 388.201 70.8417Z" fill="#C5926D"/>
<path d="M414.612 450.864L398.835 450.862L391.329 390.03L414.615 390.032L414.612 450.864Z" fill="#A0616A"/>
<path d="M360.556 450.507C360.065 451.334 359.806 454.003 359.806 454.965C359.806 457.921 362.203 460.318 365.161 460.318H414.022C416.039 460.318 417.675 458.683 417.675 456.666V454.632C417.675 454.632 420.092 448.521 415.116 440.988C415.116 440.988 408.931 446.886 399.689 437.648L396.963 432.713L377.235 447.135L366.3 448.481C363.908 448.775 361.787 448.435 360.556 450.507Z" fill="#2F2E41"/>
<path d="M368.095 80.751L405.988 75.5859L435.269 89.3595L436.991 196.105C436.991 196.105 364.963 204.713 353.611 193.522C342.26 182.331 350.872 92.8029 350.872 92.8029L368.095 80.751Z" fill="#E6E6E6"/>
<path d="M381.734 51.5799H374.783C374.783 51.5799 368.752 44.1594 369.564 48.6807C370.375 53.202 367.13 58.0681 367.13 58.0681L362.261 56.4461C362.261 56.4461 352.525 15.5245 381.734 13.2766C410.943 11.0288 417.434 33.7374 417.434 33.7374C417.434 33.7374 415.811 45.0918 412.565 41.8477C409.32 38.6036 391.47 36.9815 391.47 36.9815L381.734 51.5799Z" fill="#2F2E41"/>
<path d="M363.346 437.193L348.162 441.476L324.403 384.971L346.814 378.648L363.346 437.193Z" fill="#A0616A"/>
<path d="M311.227 451.53C310.979 452.459 311.455 455.099 311.716 456.024C312.52 458.869 315.478 460.524 318.325 459.721L365.348 446.451C367.289 445.903 368.419 443.885 367.871 441.944L367.318 439.987C367.318 439.987 367.983 433.449 361.146 427.551C361.146 427.551 356.797 434.908 345.392 428.527L341.428 424.518L326.362 443.755L316.204 448.02C313.982 448.953 311.848 449.202 311.227 451.53Z" fill="#2F2E41"/>
<path d="M431.824 185.774L436.991 201.392V255.076L421.49 417.105H391.205L387.788 301.44L390.487 244.312L332.729 331.661L358.118 394.048L330.179 412.674C330.179 412.674 288.394 317.486 294.646 308.264C300.899 299.043 356.9 190.167 356.9 190.167C356.9 190.167 431.824 187.496 431.824 185.774Z" fill="#2F2E41"/>
<path d="M447.326 123.793L455.653 137.426C455.653 137.426 467.425 183.676 455.653 183.864C443.881 184.052 420.113 160.294 420.113 160.294L423.212 147.897L431.824 151.34L430.102 123.793L447.326 123.793Z" fill="#C5926D"/>
<path d="M421.49 89.1422C421.49 89.1422 449.048 84.2889 451.632 102.319C454.215 120.35 455.653 137.426 455.653 137.426L425.796 139.898L421.49 89.1422Z" fill="#E6E6E6"/>
<path d="M427.471 158.779C429.963 155.282 426.311 148.41 419.315 143.429C412.319 138.449 404.628 137.246 402.137 140.742C399.646 144.239 403.297 151.111 410.293 156.091C417.289 161.072 424.98 162.275 427.471 158.779Z" fill="#C5926D"/>
<path d="M654.502 339.912C650.999 340.289 647.177 340.854 643.111 341.682C625.872 345.191 625.514 356.892 625.665 359.574L625.548 359.501C623.815 362.281 622.729 365.093 622.073 367.748L621.284 331.887C621.794 330.823 622.259 329.617 622.646 328.38C623.936 332.352 626.052 336.105 627.875 335.856C630.246 335.533 631.28 328.559 630.837 323.603C633.853 327.485 638.927 331.636 640.841 330.356C642.371 329.333 641.464 325.122 639.794 321.294C643.273 323.39 647.127 324.767 648.323 323.436C649.955 321.621 646.045 315.425 642.438 311.966C647.266 312.416 653.405 311.647 653.807 309.451C654.139 307.642 650.485 305.359 646.574 303.889C650.502 302.854 654.176 301.05 654.054 299.265C653.909 297.145 648.456 295.725 643.751 295.509C647.299 292.734 650.56 288.897 649.563 287.162C648.646 285.567 644.382 286.185 640.447 287.59C642.776 284.262 644.413 280.513 643.166 279.23C641.613 277.631 636.101 280.39 632.34 283.44C633.072 278.689 632.702 272.692 630.57 272.149C628.787 271.695 626.259 275.184 624.526 278.984C623.76 274.996 622.21 271.21 620.42 271.21C617.871 271.21 615.805 278.893 615.805 283.898C615.805 284.181 615.812 284.447 615.825 284.702C615.569 284.405 615.276 284.095 614.942 283.771C611.349 280.284 604.396 276.413 602.62 278.241C601.373 279.524 603.01 283.274 605.339 286.601C601.404 285.196 597.14 284.579 596.223 286.174C594.991 288.317 600.257 293.667 604.536 296.262C604.279 296.231 604.009 296.205 603.721 296.185C598.725 295.844 590.917 297.382 590.743 299.924C590.621 301.709 594.295 303.513 598.223 304.548C594.312 306.018 590.658 308.301 590.99 310.11C591.392 312.306 597.532 313.075 602.359 312.625C598.752 316.084 594.842 322.28 596.474 324.095C597.67 325.426 601.524 324.049 605.003 321.953C603.333 325.781 602.426 329.992 603.956 331.015C605.977 332.367 611.521 327.662 614.444 323.614C614.147 328.567 615.332 335.37 617.684 335.638C618.668 335.751 619.71 334.702 620.651 333.088L617.987 371.634C617.364 376.123 621.347 379.052 621.703 380.901L622.278 407.004C621.63 405.145 620.756 403.243 619.579 401.355L619.461 401.428C619.612 398.745 619.254 387.044 602.016 383.536C597.95 382.708 594.128 382.143 590.625 381.766C586.489 381.321 584.876 386.98 588.612 388.808C594.022 391.455 599.112 394.79 601.765 398.74C608.547 408.837 617.919 403 619.251 402.094C620.739 404.57 621.715 407.065 622.332 409.439L622.637 423.302C622.562 423.629 622.51 423.813 622.506 423.827L622.649 423.869L623.388 457.417L630.238 457.362L627.788 423.071C628.2 421.221 629.467 414.919 627.788 408.374L625.338 381.431C625.332 381.411 625.477 382.139 625.338 381.431L622.141 370.845C622.606 367.569 623.685 363.886 625.875 360.24C627.208 361.147 636.579 366.984 643.362 356.886C646.015 352.936 651.104 349.601 656.515 346.954C660.251 345.126 658.638 339.467 654.502 339.912ZM623.208 419.286L623.079 413.419C623.339 415.637 623.326 417.639 623.208 419.286Z" fill="#293462"/>
<path d="M574.731 453.242L586.64 450.669L582.381 403.53L564.805 407.327L574.731 453.242Z" fill="#A0616A"/>
<path d="M615.474 444.161C615.98 444.705 616.611 446.677 616.768 447.403C617.25 449.635 615.831 451.834 613.599 452.316L576.719 460.281C575.197 460.61 573.695 459.643 573.366 458.121L573.034 456.586C573.034 456.586 570.213 452.367 572.74 445.87C572.74 445.87 578.371 449.314 583.839 440.834L585.091 436.665L602.335 444.335L610.808 443.568C612.661 443.4 614.207 442.798 615.474 444.161Z" fill="#2F2E41"/>
<path d="M596.032 449.635L605.967 442.586L583.495 400.925L568.832 411.329L596.032 449.635Z" fill="#A0616A"/>
<path d="M629.912 425.261C630.592 425.562 631.948 427.127 632.378 427.733C633.7 429.595 633.262 432.175 631.399 433.496L600.63 455.324C599.359 456.225 597.598 455.927 596.697 454.656L595.787 453.376C595.787 453.376 591.533 450.607 591.299 443.64C591.299 443.64 597.831 444.592 599.52 434.645L599.03 430.32L617.902 430.589L625.389 426.551C627.027 425.668 628.211 424.506 629.912 425.261Z" fill="#2F2E41"/>
<path d="M452.907 216.579C452.907 216.579 434.38 241.757 471.434 270.064L547.084 245.901L520.066 189.572L496.136 176.454L452.907 216.579Z" fill="#2F2E41"/>
<path d="M547.084 245.901L576.418 303.002L594.945 421.833L571.787 423.376L548.628 310.718L507.715 249.759L536.277 236.642" fill="#2F2E41"/>
<path d="M471.434 252.128V270.064L523.926 327.693C523.926 327.693 523.926 370.905 543.997 390.967L567.155 426.462L587.226 415.659L557.892 312.261L505.4 244.357L471.434 252.128Z" fill="#2F2E41"/>
<path d="M508.736 74.3126L498.847 111.997L461.147 104.584C461.147 104.584 487.453 77.4729 483.744 65.1172L508.736 74.3126Z" fill="#A0616A"/>
<path d="M479.925 80.001L503.084 90.8038C503.084 90.8038 514.997 98.0826 515.216 102.931C515.435 107.78 513.891 130.929 513.891 130.929C513.891 130.929 523.154 140.188 516.979 158.707L520.066 189.572L450.591 226.611L456.767 161.794L453.679 101.607L479.925 80.001Z" fill="#3F3D56"/>
<path d="M459.138 255.626C461.849 261.845 467.257 265.487 471.216 263.762C475.175 262.036 476.185 255.597 473.472 249.377C472.422 246.877 470.789 244.665 468.709 242.925L456.887 216.722L444.704 222.529L457.651 247.745C457.51 250.453 458.02 253.156 459.138 255.626Z" fill="#A0616A"/>
<path d="M471.434 105.465C471.434 105.465 454.451 94.6617 448.276 107.008C442.1 119.354 428.205 182.628 428.205 182.628L448.276 242.815L466.802 235.098L450.591 170.324L471.434 105.465Z" fill="#3F3D56"/>
<path d="M558.474 245.912C563.287 250.695 569.657 252.089 572.701 249.027C575.746 245.965 574.312 239.607 569.497 234.823C567.6 232.886 565.266 231.431 562.691 230.58L542.043 210.572L532.857 220.458L554.187 239.132C555.054 241.702 556.524 244.027 558.474 245.912Z" fill="#A0616A"/>
<path d="M514.563 101.783C514.563 101.783 484.954 100.573 483.763 114.325C482.572 128.076 502.813 189.438 502.813 189.438L543.654 238.001L558.034 224.005L519.09 169.756L514.563 101.783Z" fill="#3F3D56"/>
<path d="M427.87 213.193L403.139 138.152C383.145 120.541 361.455 162.943 303.229 138.907L321.543 223.79C365.566 200.001 403.459 190.685 427.87 213.193Z" fill="white"/>
<path d="M321.543 226.003C321.385 226.003 321.227 225.97 321.08 225.902C320.762 225.756 320.533 225.47 320.459 225.129L302.145 140.246C302.059 139.843 302.202 139.426 302.519 139.162C302.835 138.898 303.271 138.831 303.652 138.988C336.73 152.643 358.08 144.513 373.666 138.577C385.516 134.063 394.874 130.502 403.871 138.425C404.02 138.556 404.13 138.723 404.192 138.91L428.924 213.951C429.082 214.431 428.895 214.957 428.47 215.23C428.046 215.502 427.488 215.454 427.119 215.112C405.656 195.323 372.276 198.74 322.07 225.87C321.906 225.959 321.725 226.003 321.543 226.003ZM304.753 141.821L322.316 223.221C370.489 197.434 403.483 193.459 425.579 210.885L402.182 139.893C394.255 133.108 385.934 136.277 374.456 140.648C358.827 146.599 337.537 154.708 304.753 141.821Z" fill="#3F3D56"/>
<path d="M341.581 102.401L325.933 105.639C325.933 105.639 284.105 128.648 292.011 137.368C299.917 146.089 333.511 147.203 333.511 147.203L340.45 136.47L332.05 132.538L353.349 114.973L341.581 102.401Z" fill="#C5926D"/>
<path d="M384.545 97.5827C384.545 97.5827 369.26 74.1525 354.324 84.5863C339.389 95.0201 325.933 105.639 325.933 105.639L344.527 129.12L384.545 97.5827Z" fill="#E6E6E6"/>
<path d="M360.077 146.964C360.928 142.757 354.795 137.965 346.376 136.262C337.958 134.559 330.443 136.589 329.591 140.797C328.739 145.004 334.873 149.796 343.291 151.499C351.71 153.202 359.225 151.172 360.077 146.964Z" fill="#C5926D"/>
<path d="M649.123 467.491C654.288 467.491 658.476 463.305 658.476 458.142C658.476 452.979 654.288 448.793 649.123 448.793C643.957 448.793 639.77 452.979 639.77 458.142C639.77 463.305 643.957 467.491 649.123 467.491Z" fill="#3F3D56"/>
<path d="M661.594 482C666.759 482 670.947 477.814 670.947 472.651C670.947 467.487 666.759 463.302 661.594 463.302C656.428 463.302 652.241 467.487 652.241 472.651C652.241 477.814 656.428 482 661.594 482Z" fill="#3F3D56"/>
<path d="M755.122 482C760.288 482 764.475 477.814 764.475 472.651C764.475 467.487 760.288 463.302 755.122 463.302C749.957 463.302 745.77 467.487 745.77 472.651C745.77 477.814 749.957 482 755.122 482Z" fill="#3F3D56"/>
<path d="M675.293 332.708V231.164C675.293 219.796 684.804 216.987 696.177 216.987C701.751 216.987 704.461 216.34 708.37 220.311C712.278 224.283 716.633 225.932 716.542 231.503L714.905 331.143L675.293 332.708ZM697.286 223.635C687.135 223.635 677.51 221.018 677.51 231.164V330.403L712.723 329.011L714.325 231.466C714.407 226.495 706.316 227.18 702.828 223.635C699.339 220.091 702.26 223.635 697.286 223.635Z" fill="#3F3D56"/>
<path d="M647.456 331.486L646.033 442.427C646.015 443.855 646.356 445.265 647.024 446.528L657.509 466.325C659.052 469.237 662.134 471 665.427 470.855L757.498 466.795C762.211 466.587 765.86 462.596 765.646 457.886L759.876 331.207C759.668 326.652 755.913 323.065 751.351 323.065H655.989C651.319 323.065 647.516 326.818 647.456 331.486Z" fill="#1CD6CE"/>
<path d="M683.744 381.552L681.531 381.442L682.352 365.021C682.795 356.177 690.078 349.089 698.935 348.882L738.144 347.971C746.063 347.833 752.618 353.838 753.057 361.747L753.891 376.761L751.677 376.884L750.843 361.871C750.471 355.162 744.873 350.025 738.196 350.187L698.987 351.098C691.285 351.277 684.951 357.442 684.566 365.132L683.744 381.552Z" fill="#3F3D56"/>
<path d="M682.182 461.078L679.977 460.852L684.758 414.247C685.643 405.629 692.838 398.839 701.494 398.451L739.736 396.737C744.554 396.52 749.132 398.225 752.633 401.537C756.135 404.849 758.091 409.325 758.142 414.143L758.57 454.72L756.353 454.743L755.925 414.167C755.881 409.955 754.171 406.041 751.109 403.147C748.048 400.253 744.031 398.759 739.836 398.951L701.594 400.665C694.026 401.004 687.737 406.939 686.963 414.472L682.182 461.078Z" fill="#3F3D56"/>
<path d="M665.04 457.863L662.823 457.835L664.225 351.336C664.321 344.054 670.101 338.181 677.383 337.967L752.752 335.748L752.817 337.964L677.448 340.183C671.357 340.362 666.522 345.274 666.442 351.365L665.04 457.863Z" fill="#3F3D56"/>
<path d="M665.239 442.686H663.698V345.694C663.698 342.625 661.204 340.121 658.123 340.121H649.51V337.905H658.123C662.191 337.905 665.538 341.041 665.882 345.007C665.904 345.229 665.915 345.462 665.915 345.694V391.62L665.239 442.686Z" fill="#3F3D56"/>
<path d="M524.828 54.165C524.828 68.3647 513.312 79.8758 499.107 79.8758C484.901 79.8758 473.385 68.3647 473.385 54.165C473.385 39.9652 484.901 28.4541 499.107 28.4541C513.312 28.4541 524.828 39.9652 524.828 54.165Z" fill="#A0616A"/>
<path d="M497.054 19.5982C497.798 20.0324 498.795 19.3754 499.034 18.5476C499.272 17.7199 498.994 16.841 498.719 16.0248C498.256 14.6552 497.793 13.2856 497.331 11.916C496.347 9.00197 495.302 5.98609 493.17 3.76812C489.953 0.420449 484.84 -0.431182 480.237 0.185792C474.326 0.978114 468.494 4.17757 465.745 9.46829C462.997 14.759 464.167 22.1415 469.133 25.4423C462.055 33.5517 459.588 42.5892 459.977 53.3441C460.367 64.0989 472.092 73.9969 479.738 81.5733C481.446 80.5386 482.998 75.6897 482.059 73.9282C481.12 72.1667 482.465 70.126 481.302 68.5035C480.139 66.8809 479.167 69.4645 480.342 67.8512C481.084 66.8331 478.189 64.4911 479.291 63.8818C484.625 60.9346 486.399 54.289 489.749 49.2C493.79 43.0616 500.705 38.9047 508.024 38.215C512.055 37.8351 516.314 38.5232 519.618 40.8628C522.923 43.2023 525.062 47.3831 524.296 51.3577C526.28 49.3435 527.268 46.3917 526.895 43.5893C526.523 40.7868 524.798 38.1954 522.356 36.7692C523.841 31.8611 522.569 26.2152 519.122 22.4171C515.676 18.6189 501.696 19.2658 496.665 20.2654L497.054 19.5982Z" fill="#2F2E41"/>
<path d="M496.272 38.3643C489.608 39.0833 484.797 44.8534 480.734 50.182C478.392 53.2534 475.939 56.6451 475.998 60.5063C476.057 64.4101 478.669 67.7584 479.917 71.4581C481.956 77.5052 479.968 84.6999 475.113 88.8433C479.911 89.7534 485.097 86.1575 485.925 81.3468C486.89 75.7465 482.643 70.3415 483.146 64.6812C483.589 59.6944 487.52 55.8565 490.862 52.1279C494.205 48.3993 497.344 43.4516 495.806 38.6869L496.272 38.3643Z" fill="#2F2E41"/>
</g>
<defs>
<clipPath id="clip0_26_3062">
<rect width="811" height="482" fill="white"/>
</clipPath>
</defs>
</svg>
