<svg width="132" height="35" viewBox="0 0 132 35" fill="none" xmlns="http://www.w3.org/2000/svg">
<path d="M20.8485 34.2907C20.7834 34.2907 20.6857 34.2744 20.5554 34.2418C20.4252 34.2093 20.2949 34.1441 20.1646 34.0464L1.60221 21.4924C1.1463 21.1667 0.788073 20.8573 0.527548 20.5642C0.299588 20.2712 0.185608 19.8804 0.185608 19.3919V17.6333C0.185608 17.1123 0.299588 16.7052 0.527548 16.4121C0.788073 16.119 1.1463 15.8259 1.60221 15.5329L20.1646 2.92994C20.2949 2.86481 20.4252 2.81596 20.5554 2.78339C20.6857 2.75083 20.7834 2.73455 20.8485 2.73455C21.1416 2.73455 21.3859 2.83224 21.5812 3.02764C21.7766 3.19047 21.8743 3.41843 21.8743 3.71152V10.3061C21.8743 10.8922 21.7115 11.3319 21.3859 11.625C21.0602 11.9181 20.7345 12.1623 20.4089 12.3577L10.8346 18.5126L20.4089 24.7164C20.7345 24.8792 21.0602 25.1072 21.3859 25.4002C21.7115 25.6608 21.8743 26.0841 21.8743 26.6703V33.2649C21.8743 33.5905 21.7766 33.851 21.5812 34.0464C21.3859 34.2093 21.1416 34.2907 20.8485 34.2907ZM111.064 34.3395C110.771 34.3395 110.527 34.2418 110.331 34.0464C110.136 33.851 110.038 33.6068 110.038 33.3137V26.7192C110.038 26.133 110.201 25.7096 110.527 25.4491C110.885 25.156 111.211 24.9118 111.504 24.7164L121.127 18.5126L111.504 12.3577C111.211 12.1949 110.885 11.9669 110.527 11.6738C110.201 11.3482 110.038 10.9085 110.038 10.3549V3.76037C110.038 3.46728 110.136 3.22303 110.331 3.02764C110.527 2.83224 110.771 2.73455 111.064 2.73455C111.162 2.73455 111.259 2.76711 111.357 2.83225C111.487 2.86481 111.618 2.91366 111.748 2.97879L130.359 15.5817C130.815 15.8748 131.157 16.1679 131.385 16.461C131.646 16.7541 131.776 17.1449 131.776 17.6333V19.4407C131.776 19.9292 131.646 20.32 131.385 20.6131C131.157 20.9062 130.815 21.1993 130.359 21.4924L111.748 34.0953C111.618 34.1604 111.487 34.2093 111.357 34.2418C111.259 34.307 111.162 34.3395 111.064 34.3395Z" fill="#D61C4E"/>
<path d="M33.0774 34.2418C32.7518 34.2418 32.4587 34.1278 32.1982 33.8999C31.9376 33.6394 31.8074 33.33 31.8074 32.9718V1.31794C31.8074 0.959718 31.9376 0.666627 32.1982 0.438669C32.4587 0.178143 32.7518 0.0478801 33.0774 0.0478801H48.6601C51.6236 0.0478801 54.0497 0.438668 55.9385 1.22024C57.8273 2.00182 59.2277 3.12534 60.1395 4.59079C61.0513 6.05624 61.5072 7.86364 61.5072 10.013C61.5072 11.1202 61.2793 12.1135 60.8234 12.9927C60.4 13.8394 59.879 14.5559 59.2602 15.1421C58.6415 15.6957 58.0553 16.1028 57.5017 16.3633C58.7717 16.9169 59.879 17.8613 60.8234 19.1965C61.7678 20.4991 62.24 21.9971 62.24 23.6905C62.24 25.9701 61.7189 27.8915 60.6768 29.4547C59.6673 31.0178 58.1856 32.2065 56.2316 33.0206C54.3102 33.8348 51.9492 34.2418 49.1486 34.2418H33.0774ZM42.3098 26.8657H48.0251C49.1323 26.8657 49.9464 26.54 50.4675 25.8887C50.9885 25.2049 51.2491 24.4558 51.2491 23.6417C51.2491 22.795 50.9723 22.0623 50.4186 21.4435C49.865 20.7922 49.0672 20.4665 48.0251 20.4665H42.3098V26.8657ZM42.3098 13.2858H47.5366C48.5787 13.2858 49.344 12.9927 49.8325 12.4065C50.3209 11.8204 50.5652 11.1365 50.5652 10.3549C50.5652 9.57334 50.3209 8.88946 49.8325 8.30328C49.344 7.71709 48.5787 7.424 47.5366 7.424H42.3098V13.2858Z" fill="#030920"/>
<path d="M72.3394 34.2418C72.0137 34.2418 71.7207 34.1278 71.4601 33.8999C71.1996 33.6394 71.0693 33.33 71.0693 32.9718V1.31794C71.0693 0.959718 71.1996 0.666627 71.4601 0.438669C71.7207 0.178143 72.0137 0.0478801 72.3394 0.0478801H87.9221C90.8855 0.0478801 93.3117 0.438668 95.2005 1.22024C97.0893 2.00182 98.4896 3.12534 99.4015 4.59079C100.313 6.05624 100.769 7.86364 100.769 10.013C100.769 11.1202 100.541 12.1135 100.085 12.9927C99.662 13.8394 99.1409 14.5559 98.5222 15.1421C97.9034 15.6957 97.3173 16.1028 96.7636 16.3633C98.0337 16.9169 99.1409 17.8613 100.085 19.1965C101.03 20.4991 101.502 21.9971 101.502 23.6905C101.502 25.9701 100.981 27.8915 99.9388 29.4547C98.9293 31.0178 97.4475 32.2065 95.4936 33.0206C93.5722 33.8348 91.2112 34.2418 88.4106 34.2418H72.3394ZM81.5718 26.8657H87.287C88.3943 26.8657 89.2084 26.54 89.7295 25.8887C90.2505 25.2049 90.511 24.4558 90.511 23.6417C90.511 22.795 90.2342 22.0623 89.6806 21.4435C89.127 20.7922 88.3291 20.4665 87.287 20.4665H81.5718V26.8657ZM81.5718 13.2858H86.7986C87.8407 13.2858 88.6059 12.9927 89.0944 12.4065C89.5829 11.8204 89.8272 11.1365 89.8272 10.3549C89.8272 9.57334 89.5829 8.88946 89.0944 8.30328C88.6059 7.71709 87.8407 7.424 86.7986 7.424H81.5718V13.2858Z" fill="#16C0B9"/>
</svg>
